<svg width="80" height="80" viewBox="0 0 80 80" fill="none" xmlns="http://www.w3.org/2000/svg">
<path d="M60.6097 70.0697C61.2005 70.6605 62.1584 70.6605 62.7492 70.0697L72.3767 60.4422C72.9675 59.8514 72.9675 58.8935 72.3767 58.3027C71.7859 57.7119 70.828 57.7119 70.2373 58.3027L61.6794 66.8605L53.1216 58.3027C52.5308 57.7119 51.573 57.7119 50.9822 58.3027C50.3914 58.8935 50.3914 59.8514 50.9822 60.4422L60.6097 70.0697ZM60.1666 10L60.1666 69L63.1923 69L63.1923 10L60.1666 10Z" fill="black"/>
<path d="M36.0885 46.7191H12.3409V44.1079H36.0885C39.3584 44.1079 42.0284 43.5668 44.0985 42.4847C46.1686 41.4026 47.6742 39.9441 48.6152 38.1092C49.5796 36.2508 50.0619 34.1807 50.0619 31.8988C50.0619 29.617 49.5914 27.5351 48.6504 25.6532C47.7095 23.7477 46.2039 22.2186 44.1338 21.066C42.0637 19.9133 39.3819 19.3369 36.0885 19.3369H22.2916V68.1025H19.4687V16.7257H36.0885C39.7818 16.7257 42.8753 17.3609 45.3688 18.6312C47.8624 19.878 49.7443 21.6423 51.0146 23.9241C52.2849 26.1825 52.9201 28.8172 52.9201 31.8283C52.9201 34.8864 52.2849 37.5329 51.0146 39.7677C49.7678 42.0025 47.8977 43.7197 45.4041 44.9195C42.9105 46.1192 39.8054 46.7191 36.0885 46.7191ZM35.9827 52.1884V54.7996H12.3409V52.1884H35.9827Z" fill="black"/>
</svg>
