<svg width="279" height="279" viewBox="0 0 279 279" fill="none" xmlns="http://www.w3.org/2000/svg">
<g filter="url(#filter0_f_83_244)">
<path d="M254.313 72.9396C260.103 67.1497 260.15 57.6906 253.797 52.5254C243.086 43.8165 231.153 36.6855 218.359 31.3736C200.992 24.1634 182.378 20.4459 163.581 20.4335C144.783 20.4211 126.168 24.114 108.801 31.3013C91.4336 38.4887 75.653 49.0297 62.3602 62.3225C49.0673 75.6154 38.5226 91.3997 31.328 108.774C24.1335 126.149 20.43 144.774 20.429 163.585C20.428 182.396 24.1296 201.026 31.3224 218.41C36.6214 231.217 43.7388 243.164 52.4339 253.889C57.5909 260.25 67.0434 260.209 72.8333 254.419C78.6232 248.629 78.5366 239.289 73.5533 232.791C67.5178 224.921 62.5248 216.278 58.7164 207.073C53.0135 193.29 50.0787 178.519 50.0795 163.605C50.0802 148.69 53.0166 133.923 58.7209 120.147C64.4252 106.372 72.7857 93.8567 83.3251 83.3173C93.8645 72.7779 106.376 64.4203 120.146 58.7217C133.916 53.0232 148.675 50.0952 163.579 50.1051C178.483 50.1149 193.241 53.0623 207.011 58.7791C216.206 62.5967 224.84 67.5994 232.7 73.6447C239.19 78.6362 248.523 78.7295 254.313 72.9396Z" fill="#FFA569"/>
</g>
<defs>
<filter id="filter0_f_83_244" x="0.429016" y="0.433594" width="278.181" height="278.279" filterUnits="userSpaceOnUse" color-interpolation-filters="sRGB">
<feFlood flood-opacity="0" result="BackgroundImageFix"/>
<feBlend mode="normal" in="SourceGraphic" in2="BackgroundImageFix" result="shape"/>
<feGaussianBlur stdDeviation="10" result="effect1_foregroundBlur_83_244"/>
</filter>
</defs>
</svg>
