<svg width="80" height="80" viewBox="0 0 80 80" fill="none" xmlns="http://www.w3.org/2000/svg">
<path d="M39.7104 20.2559C20.5943 20.2559 8.91227 35.1239 3.21606 42.558C9.10537 48.3507 24.9389 59.9362 40.0001 59.9362C55.0612 59.9362 71.474 48.3507 76.7841 42.558C71.6671 35.1239 56.3936 20.2559 39.7104 20.2559Z" stroke="black" stroke-width="4"/>
<mask id="path-2-inside-1_170_1000" fill="white">
<path d="M48.056 40.3197C48.8116 40.3197 49.4346 40.9356 49.3217 41.6827C49.0622 43.3995 48.3161 45.0168 47.1582 46.336C45.6977 47.9999 43.6818 49.0757 41.4865 49.3627C39.2912 49.6498 37.0665 49.1285 35.2273 47.896C33.3881 46.6636 32.0599 44.8042 31.4907 42.6646C30.9214 40.5251 31.1499 38.2515 32.1335 36.268C33.1171 34.2846 34.7886 32.7266 36.8363 31.8847C38.8839 31.0429 41.1679 30.9747 43.2622 31.6928C44.9225 32.2621 46.3737 33.2948 47.452 34.6556C47.9213 35.2478 47.6867 36.0919 47.031 36.4674V36.4674C46.3753 36.8429 45.5487 36.6025 45.0424 36.0417C44.3217 35.2436 43.4058 34.6346 42.3747 34.2811C40.9088 33.7784 39.31 33.8262 37.8767 34.4154C36.4434 35.0047 35.2733 36.0952 34.5849 37.4836C33.8964 38.872 33.7365 40.4635 34.1349 41.9611C34.5334 43.4587 35.463 44.7603 36.7504 45.6229C38.0378 46.4856 39.5951 46.8505 41.1318 46.6496C42.6684 46.4487 44.0795 45.6956 45.1018 44.5309C45.8209 43.7117 46.3131 42.7281 46.5418 41.6774C46.7025 40.9391 47.3004 40.3197 48.056 40.3197V40.3197Z"/>
</mask>
<path d="M48.056 40.3197C48.8116 40.3197 49.4346 40.9356 49.3217 41.6827C49.0622 43.3995 48.3161 45.0168 47.1582 46.336C45.6977 47.9999 43.6818 49.0757 41.4865 49.3627C39.2912 49.6498 37.0665 49.1285 35.2273 47.896C33.3881 46.6636 32.0599 44.8042 31.4907 42.6646C30.9214 40.5251 31.1499 38.2515 32.1335 36.268C33.1171 34.2846 34.7886 32.7266 36.8363 31.8847C38.8839 31.0429 41.1679 30.9747 43.2622 31.6928C44.9225 32.2621 46.3737 33.2948 47.452 34.6556C47.9213 35.2478 47.6867 36.0919 47.031 36.4674V36.4674C46.3753 36.8429 45.5487 36.6025 45.0424 36.0417C44.3217 35.2436 43.4058 34.6346 42.3747 34.2811C40.9088 33.7784 39.31 33.8262 37.8767 34.4154C36.4434 35.0047 35.2733 36.0952 34.5849 37.4836C33.8964 38.872 33.7365 40.4635 34.1349 41.9611C34.5334 43.4587 35.463 44.7603 36.7504 45.6229C38.0378 46.4856 39.5951 46.8505 41.1318 46.6496C42.6684 46.4487 44.0795 45.6956 45.1018 44.5309C45.8209 43.7117 46.3131 42.7281 46.5418 41.6774C46.7025 40.9391 47.3004 40.3197 48.056 40.3197V40.3197Z" stroke="black" stroke-width="8" mask="url(#path-2-inside-1_170_1000)"/>
</svg>
