<svg width="19" height="19" viewBox="0 0 19 19" fill="none" xmlns="http://www.w3.org/2000/svg">
<rect x="6.11267" y="12.228" width="1.63036" height="6.38782" rx="0.815182" fill="black"/>
<rect x="11.0439" y="12.228" width="1.63036" height="6.38782" rx="0.815182" fill="black"/>
<rect x="17.0575" y="6.14746" width="1.63036" height="12.4683" rx="0.815182" fill="black"/>
<rect x="0.312866" y="6.14746" width="1.63036" height="12.4683" rx="0.815182" fill="black"/>
<rect x="9.6925" width="1.63036" height="11.7738" rx="0.815182" transform="rotate(55.4094 9.6925 0)" fill="black"/>
<rect width="1.63036" height="11.8124" rx="0.815182" transform="matrix(-0.567709 0.82323 0.82323 0.567709 9.27573 0)" fill="black"/>
<path d="M12.6742 13.1162C12.6742 12.2461 12.3286 11.4116 11.7133 10.7964C11.098 10.1811 10.2636 9.83545 9.39344 9.83545C8.52333 9.83545 7.68885 10.1811 7.07359 10.7964C6.45832 11.4116 6.11267 12.2461 6.11267 13.1162L7.74322 13.1162C7.74322 12.6786 7.91708 12.2588 8.22656 11.9493C8.53603 11.6399 8.95578 11.466 9.39344 11.466C9.83111 11.466 10.2509 11.6399 10.5603 11.9493C10.8698 12.2588 11.0437 12.6786 11.0437 13.1162H12.6742Z" fill="black"/>
</svg>
