<svg width="40" height="40" viewBox="0 0 40 40" fill="none" xmlns="http://www.w3.org/2000/svg">
<path d="M25.8368 16.8722C25.8368 20.0204 23.2335 22.607 19.9794 22.607C16.7252 22.607 14.1219 20.0204 14.1219 16.8722C14.1219 13.7239 16.7252 11.1373 19.9794 11.1373C23.2335 11.1373 25.8368 13.7239 25.8368 16.8722Z" stroke="black" stroke-width="2.29421"/>
<path d="M9.72702 26.0618C8.09332 23.2273 7.81989 21.9583 7.29551 19.3692C7.01358 16.7763 7.07141 14.2418 8.0198 11.9923C8.99703 9.67433 10.6533 7.68988 12.7824 6.29221C14.9116 4.89439 17.4171 4.1471 19.9817 4.1471C22.5463 4.1471 25.0517 4.89439 27.181 6.29221C29.3101 7.68988 30.9664 9.67434 31.9436 11.9923C32.9001 14.261 33.0262 16.8072 32.6713 19.3521C32.1423 21.9628 31.7884 23.4463 30.3126 26.0726C29.5871 27.3638 27.8302 29.7735 25.7611 31.8531C24.7301 32.8892 23.6535 33.8109 22.6209 34.4662C21.5681 35.1342 20.6742 35.4529 19.9817 35.4529C19.3815 35.4529 18.5486 35.1564 17.5214 34.499C16.5203 33.8582 15.4564 32.9538 14.4238 31.929C12.3517 29.8727 10.5335 27.4609 9.72702 26.0618Z" stroke="black" stroke-width="2.29421"/>
</svg>
