<svg width="80" height="80" viewBox="0 0 80 80" fill="none" xmlns="http://www.w3.org/2000/svg">
<rect x="10" y="33" width="60" height="45" rx="6" stroke="black" stroke-width="4"/>
<rect x="20" y="19" width="4" height="16" fill="black"/>
<rect x="55" y="19" width="4" height="16" fill="black"/>
<mask id="path-4-inside-1_170_999" fill="white">
<path d="M59 19.5C59 14.3283 56.9455 9.36838 53.2886 5.71142C49.6316 2.05446 44.6717 3.90454e-07 39.5 0C34.3283 -3.90454e-07 29.3684 2.05446 25.7114 5.71142C22.0545 9.36837 20 14.3283 20 19.5L23.994 19.5C23.994 15.3875 25.6276 11.4435 28.5356 8.53558C31.4435 5.62764 35.3875 3.99398 39.5 3.99398C43.6125 3.99398 47.5565 5.62764 50.4644 8.53559C53.3724 11.4435 55.006 15.3875 55.006 19.5H59Z"/>
</mask>
<path d="M59 19.5C59 14.3283 56.9455 9.36838 53.2886 5.71142C49.6316 2.05446 44.6717 3.90454e-07 39.5 0C34.3283 -3.90454e-07 29.3684 2.05446 25.7114 5.71142C22.0545 9.36837 20 14.3283 20 19.5L23.994 19.5C23.994 15.3875 25.6276 11.4435 28.5356 8.53558C31.4435 5.62764 35.3875 3.99398 39.5 3.99398C43.6125 3.99398 47.5565 5.62764 50.4644 8.53559C53.3724 11.4435 55.006 15.3875 55.006 19.5H59Z" stroke="black" stroke-width="14" mask="url(#path-4-inside-1_170_999)"/>
<rect x="38" y="48.4761" width="4" height="17.5238" rx="2" fill="black"/>
<circle cx="40" cy="50" r="4" fill="black"/>
</svg>
