<svg width="40" height="40" viewBox="0 0 40 40" fill="none" xmlns="http://www.w3.org/2000/svg">
<path d="M3.80959 6C1.69608 6 0 7.79309 0 9.94736V29.8947C0 32.049 1.696 33.8571 3.80959 33.8571H36.1904C38.3039 33.8571 40 32.049 40 29.8947V9.94736C40 7.79309 38.3043 6 36.1904 6H3.80959ZM3.80959 7.92106H36.1904C36.4698 7.92106 36.7401 7.98974 36.979 8.10131L21.235 22.7953C20.5075 23.4741 19.5383 23.4741 18.8096 22.7953L3.03582 8.10131C3.27165 7.99343 3.53506 7.92106 3.80976 7.92106H3.80959ZM1.93451 9.69202L13.1105 20.1087L2.14285 30.871C1.99803 30.5825 1.90469 30.2559 1.90469 29.8954V9.94804C1.90469 9.85993 1.92528 9.77751 1.93458 9.69274L1.93451 9.69202ZM38.0653 9.70676C38.0739 9.7865 38.0949 9.86389 38.0949 9.94698V29.8943C38.0949 30.2471 38.0108 30.5708 37.8717 30.8549L26.9346 20.0925L38.0655 9.70589L38.0653 9.70676ZM25.5501 21.3842L36.249 31.9356H36.1895H3.80872C3.79344 31.9356 3.77916 31.9359 3.76388 31.9356L14.5079 21.3988L17.514 24.2058C18.927 25.5222 21.1159 25.5241 22.529 24.2058L25.5501 21.3842Z" fill="black"/>
</svg>
