<svg width="40" height="40" viewBox="0 0 40 40" fill="none" xmlns="http://www.w3.org/2000/svg">
<path d="M27.8192 36.9997C27.6112 36.9997 27.4031 36.9914 27.1937 36.9756H27.1934C23.7549 36.7128 20.4628 35.4731 17.7051 33.4026C13.4946 30.2451 9.75479 26.5052 6.59767 22.2948C4.52725 19.5368 3.28721 16.2446 3.02442 12.8063C2.84069 10.4429 3.70024 8.11751 5.37698 6.44203L7.5078 4.31115C8.34903 3.47151 9.48941 3 10.6781 3C11.8668 3 13.007 3.47153 13.8484 4.31115L15.7753 6.23809C16.6159 7.07903 17.088 8.21944 17.088 9.40851C17.088 10.5973 16.6159 11.7377 15.7753 12.5786L14.6716 13.6827C14.2181 14.1384 13.9357 14.737 13.8725 15.3768C13.8092 16.0169 13.9686 16.6589 14.3241 17.195C16.5596 20.5555 19.4415 23.4374 22.802 25.6731C23.338 26.0283 23.9803 26.1877 24.6201 26.1244C25.2598 26.0612 25.8585 25.7788 26.3142 25.3256L27.4194 24.2203C28.2603 23.3794 29.4007 22.9072 30.5897 22.9072C31.7788 22.9072 32.9189 23.3794 33.7597 24.2203L35.6866 26.1472V26.1469C36.5275 26.9879 37 28.1283 37 29.3177C37 30.5068 36.5275 31.6471 35.6866 32.4881L33.5558 34.619C32.0357 36.1426 29.9718 36.9994 27.8195 37L27.8192 36.9997ZM10.682 4.69805C9.94298 4.69647 9.23395 4.98933 8.71152 5.51211L6.58071 7.64299C5.25567 8.9671 4.57667 10.8049 4.72216 12.6727C4.95997 15.789 6.08322 18.7725 7.9595 21.2715C11.0198 25.3537 14.6445 28.9804 18.7253 32.0424C21.2249 33.9191 24.208 35.0421 27.3239 35.2802C29.1912 35.4228 31.0277 34.7439 32.3537 33.4213L34.4845 31.2904C35.0063 30.7683 35.2994 30.0602 35.2994 29.3221C35.2994 28.584 35.0063 27.8759 34.4845 27.3538L32.5576 25.4268C32.0276 24.9202 31.3227 24.6375 30.5896 24.6375C29.8563 24.6375 29.1513 24.9202 28.6214 25.4268L27.5155 26.5318H27.5158C26.7812 27.262 25.8173 27.7165 24.7866 27.818C23.756 27.9195 22.7219 27.6621 21.8592 27.0891C18.3116 24.7289 15.2694 21.6866 12.9093 18.1389C12.3366 17.2755 12.0798 16.2404 12.1822 15.2094C12.2847 14.1781 12.7404 13.2141 13.4719 12.4801L14.5768 11.3749C15.0986 10.8527 15.3917 10.145 15.3917 9.40656C15.3917 8.66843 15.0986 7.96036 14.5768 7.43825L12.6499 5.51131V5.51163C12.1278 4.98887 11.4185 4.69603 10.6797 4.69757L10.682 4.69805Z" fill="black"/>
</svg>
