<svg width="80" height="80" viewBox="0 0 80 80" fill="none" xmlns="http://www.w3.org/2000/svg">
<path d="M66.3062 45.9693C66.3062 60.4979 54.5285 72.2756 40 72.2756C25.4715 72.2756 13.6937 60.4979 13.6937 45.9693C13.6937 33.2971 22.6559 22.7141 34.5886 20.2199C34.6257 20.2407 34.679 20.2739 34.7502 20.3256C35.0605 20.5509 35.4169 20.9106 35.9059 21.4251C35.9384 21.4593 35.9717 21.4944 36.0056 21.5302C36.4264 21.9738 36.9473 22.523 37.4891 22.9578C38.0512 23.4088 38.9177 23.9753 40 23.9753C41.0823 23.9753 41.9487 23.4088 42.5108 22.9578C43.0527 22.523 43.5736 21.9738 43.9944 21.5302C44.0283 21.4944 44.0615 21.4593 44.0941 21.4251C44.5831 20.9106 44.9395 20.5509 45.2498 20.3256C45.321 20.2739 45.3743 20.2407 45.4114 20.2199C57.3441 22.7141 66.3062 33.2971 66.3062 45.9693ZM34.5218 20.1879C34.5217 20.1877 34.5243 20.1885 34.5297 20.1906C34.5245 20.1891 34.5218 20.1881 34.5218 20.1879ZM45.4782 20.1879C45.4782 20.1881 45.4755 20.1891 45.4703 20.1906C45.4757 20.1885 45.4783 20.1877 45.4782 20.1879Z" stroke="black" stroke-width="3.45"/>
<rect x="38.7063" y="13.625" width="6.9" height="2.5875" rx="1.29375" transform="rotate(-90 38.7063 13.625)" fill="black"/>
<rect x="44.7437" y="7.5874" width="9.4875" height="2.5875" rx="1.29375" transform="rotate(180 44.7437 7.5874)" fill="black"/>
<rect x="13.6938" y="44.6748" width="10.35" height="2.5875" rx="1.29375" fill="black"/>
<rect x="29.2188" y="44.6748" width="6.9" height="2.5875" rx="1.29375" fill="black"/>
<rect x="40.3845" y="42.5957" width="13.2295" height="2.5875" rx="1.29375" transform="rotate(-64.8923 40.3845 42.5957)" fill="black"/>
<rect x="55.9563" y="44.6748" width="10.35" height="2.5875" rx="1.29375" fill="black"/>
<rect x="20.4836" y="63.6553" width="10.35" height="2.5875" rx="1.29375" transform="rotate(-45 20.4836 63.6553)" fill="black"/>
<rect x="50.3679" y="33.7715" width="10.35" height="2.5875" rx="1.29375" transform="rotate(-45 50.3679 33.7715)" fill="black"/>
<rect x="57.6865" y="65.4844" width="10.35" height="2.5875" rx="1.29375" transform="rotate(-135 57.6865 65.4844)" fill="black"/>
<rect x="27.8027" y="35.6006" width="10.35" height="2.5875" rx="1.29375" transform="rotate(-135 27.8027 35.6006)" fill="black"/>
<rect x="38.7063" y="72.2749" width="10.35" height="2.5875" rx="1.29375" transform="rotate(-90 38.7063 72.2749)" fill="black"/>
<rect x="38.7065" y="30.0127" width="6.0375" height="2.5875" rx="1.29375" transform="rotate(-90 38.7065 30.0127)" fill="black"/>
<circle cx="40" cy="45.9686" r="4.3125" stroke="black" stroke-width="2.5875"/>
<path d="M36.9813 13.1937H43.0188C43.7333 13.1937 44.3125 13.7729 44.3125 14.4874V19.6624C44.3125 20.3769 43.7333 20.9562 43.0188 20.9562H36.9813C36.2668 20.9562 35.6875 20.3769 35.6875 19.6624V14.4874C35.6875 13.7729 36.2668 13.1937 36.9813 13.1937Z" stroke="black" stroke-width="2.5875"/>
</svg>
