<svg width="184" height="39" viewBox="0 0 184 39" fill="none" xmlns="http://www.w3.org/2000/svg">
<rect x="-0.928568" y="0.928568" width="18.9797" height="7.42854" rx="1.2921" transform="matrix(-1 0 0 1 172.834 29.7139)" stroke="black" stroke-width="1.85714"/>
<path d="M170.103 28.6793C170.103 28.0544 169.597 27.5477 168.972 27.5477H159.592C158.967 27.5477 158.46 28.0544 158.46 28.6793V30.6429H170.103V28.6793Z" stroke="black" stroke-width="1.85714"/>
<path d="M166.451 27.5475L166.451 1.85713C166.451 1.3443 166.036 0.928564 165.523 0.928564L163.065 0.928564C162.553 0.928564 162.137 1.3443 162.137 1.85713L162.137 27.5475L166.451 27.5475Z" stroke="black" stroke-width="1.85714"/>
<rect x="0.464284" y="-0.464284" width="11.6866" height="0.928568" rx="0.464284" transform="matrix(1 8.76889e-08 8.71574e-08 -1 165.599 4.64272)" stroke="black" stroke-width="0.928568"/>
<rect x="0.464284" y="-0.464284" width="11.6866" height="0.928568" rx="0.464284" transform="matrix(1 8.76889e-08 8.71574e-08 -1 170.602 16.4044)" stroke="black" stroke-width="0.928568"/>
<rect x="0.464284" y="-0.464284" width="11.6866" height="0.928568" rx="0.464284" transform="matrix(1 8.76889e-08 8.71574e-08 -1 144.936 16.4044)" stroke="black" stroke-width="0.928568"/>
<rect x="0.464284" y="-0.464284" width="11.6866" height="0.928568" rx="0.464284" transform="matrix(1 8.76889e-08 8.71574e-08 -1 150.33 4.64272)" stroke="black" stroke-width="0.928568"/>
<path d="M152.867 6.14881C152.744 5.90877 152.628 5.68611 152.519 5.48368C152.492 5.53398 152.464 5.58551 152.436 5.63824C152.942 6.67105 153.532 7.92783 154.109 9.18725C154.748 10.5832 155.374 11.9891 155.851 13.1059C156.09 13.6636 156.294 14.1541 156.445 14.5371C156.581 14.8817 156.712 15.2298 156.754 15.444C156.971 16.5359 156.859 17.6678 156.435 18.6967C156.01 19.7255 155.29 20.6053 154.366 21.2245C153.442 21.8437 152.356 22.1744 151.244 22.1744C150.132 22.1744 149.046 21.8437 148.122 21.2245C147.198 20.6053 146.478 19.7255 146.053 18.6966C145.628 17.6678 145.517 16.5359 145.734 15.444C145.779 15.2173 145.922 14.8588 146.065 14.5182C146.227 14.1341 146.445 13.6429 146.7 13.085C147.211 11.9677 147.88 10.5615 148.563 9.16581C149.18 7.90443 149.811 6.64626 150.349 5.61332C150.326 5.56972 150.305 5.52695 150.283 5.48504C150.165 5.69288 150.038 5.92204 149.904 6.16936C149.358 7.17549 148.711 8.45064 148.082 9.74263C147.454 11.0342 146.848 12.3338 146.385 13.3877C146.153 13.9152 145.959 14.3751 145.817 14.7387C145.666 15.1262 145.598 15.3411 145.584 15.4119C145.361 16.5358 145.476 17.7007 145.913 18.7592C146.35 19.8177 147.09 20.7219 148.039 21.3579C148.988 21.9939 150.103 22.3332 151.244 22.3332C152.385 22.3332 153.5 21.9939 154.449 21.3579C155.398 20.7219 156.138 19.8177 156.575 18.7592C157.012 17.7007 157.126 16.5358 156.903 15.4119C156.887 15.3293 156.819 15.1056 156.678 14.7197C156.545 14.3545 156.364 13.8934 156.148 13.3655C155.717 12.3108 155.154 11.0108 154.568 9.71959C153.983 8.4276 153.379 7.15352 152.867 6.14881Z" fill="black" stroke="black" stroke-width="1.85714"/>
<path d="M178.924 6.14881C178.801 5.90877 178.685 5.68611 178.576 5.48368C178.549 5.53398 178.521 5.58551 178.493 5.63824C178.999 6.67105 179.589 7.92783 180.166 9.18725C180.805 10.5832 181.431 11.9891 181.908 13.1059C182.147 13.6636 182.351 14.1541 182.502 14.5371C182.638 14.8817 182.769 15.2298 182.811 15.444C183.028 16.5359 182.916 17.6678 182.492 18.6967C182.067 19.7255 181.347 20.6053 180.423 21.2245C179.499 21.8437 178.413 22.1744 177.301 22.1744C176.189 22.1744 175.103 21.8437 174.179 21.2245C173.255 20.6053 172.535 19.7255 172.11 18.6966C171.685 17.6678 171.574 16.5359 171.791 15.444C171.836 15.2173 171.979 14.8588 172.122 14.5182C172.284 14.1341 172.502 13.6429 172.757 13.085C173.268 11.9677 173.937 10.5615 174.62 9.16581C175.237 7.90443 175.868 6.64626 176.405 5.61332C176.383 5.56972 176.362 5.52695 176.34 5.48504C176.222 5.69288 176.095 5.92204 175.961 6.16936C175.415 7.17549 174.768 8.45064 174.139 9.74263C173.511 11.0342 172.905 12.3338 172.442 13.3877C172.21 13.9152 172.016 14.3751 171.874 14.7387C171.723 15.1262 171.655 15.3411 171.641 15.4119C171.418 16.5358 171.533 17.7007 171.97 18.7592C172.407 19.8177 173.147 20.7219 174.096 21.3579C175.045 21.9939 176.16 22.3332 177.301 22.3332C178.442 22.3332 179.557 21.9939 180.506 21.3579C181.455 20.7219 182.195 19.8177 182.632 18.7592C183.069 17.7007 183.183 16.5358 182.96 15.4119C182.944 15.3293 182.876 15.1056 182.735 14.7197C182.602 14.3545 182.421 13.8934 182.205 13.3655C181.774 12.3108 181.211 11.0108 180.625 9.71959C180.04 8.4276 179.436 7.15352 178.924 6.14881Z" fill="black" stroke="black" stroke-width="1.85714"/>
<mask id="path-10-inside-1_131_84" fill="white">
<path d="M144.545 16.572C144.545 18.3542 145.251 20.0633 146.507 21.3235C147.763 22.5836 149.467 23.2915 151.244 23.2915C153.021 23.2915 154.725 22.5836 155.981 21.3235C157.237 20.0633 157.943 18.3542 157.943 16.572L155.933 16.572C155.933 17.8195 155.439 19.0159 154.56 19.898C153.68 20.7801 152.488 21.2757 151.244 21.2757C150 21.2757 148.807 20.7801 147.928 19.898C147.049 19.0159 146.555 17.8195 146.555 16.572H144.545Z"/>
</mask>
<path d="M144.545 16.572C144.545 18.3542 145.251 20.0633 146.507 21.3235C147.763 22.5836 149.467 23.2915 151.244 23.2915C153.021 23.2915 154.725 22.5836 155.981 21.3235C157.237 20.0633 157.943 18.3542 157.943 16.572L155.933 16.572C155.933 17.8195 155.439 19.0159 154.56 19.898C153.68 20.7801 152.488 21.2757 151.244 21.2757C150 21.2757 148.807 20.7801 147.928 19.898C147.049 19.0159 146.555 17.8195 146.555 16.572H144.545Z" stroke="black" stroke-width="3.71427" mask="url(#path-10-inside-1_131_84)"/>
<mask id="path-11-inside-2_131_84" fill="white">
<path d="M170.602 16.572C170.602 17.4545 170.775 18.3282 171.112 19.1435C171.448 19.9587 171.942 20.6995 172.564 21.3235C173.186 21.9474 173.924 22.4424 174.737 22.7801C175.55 23.1177 176.421 23.2915 177.301 23.2915C178.181 23.2915 179.052 23.1177 179.865 22.7801C180.677 22.4424 181.416 21.9474 182.038 21.3235C182.66 20.6995 183.153 19.9587 183.49 19.1435C183.827 18.3282 184 17.4545 184 16.572H181.99C181.99 17.1897 181.869 17.8014 181.633 18.3721C181.398 18.9427 181.052 19.4613 180.617 19.898C180.181 20.3348 179.664 20.6813 179.095 20.9177C178.526 21.154 177.917 21.2757 177.301 21.2757C176.685 21.2757 176.075 21.154 175.506 20.9177C174.937 20.6813 174.42 20.3348 173.985 19.898C173.55 19.4613 173.204 18.9427 172.968 18.3721C172.733 17.8014 172.612 17.1897 172.612 16.572H170.602Z"/>
</mask>
<path d="M170.602 16.572C170.602 17.4545 170.775 18.3282 171.112 19.1435C171.448 19.9587 171.942 20.6995 172.564 21.3235C173.186 21.9474 173.924 22.4424 174.737 22.7801C175.55 23.1177 176.421 23.2915 177.301 23.2915C178.181 23.2915 179.052 23.1177 179.865 22.7801C180.677 22.4424 181.416 21.9474 182.038 21.3235C182.66 20.6995 183.153 19.9587 183.49 19.1435C183.827 18.3282 184 17.4545 184 16.572H181.99C181.99 17.1897 181.869 17.8014 181.633 18.3721C181.398 18.9427 181.052 19.4613 180.617 19.898C180.181 20.3348 179.664 20.6813 179.095 20.9177C178.526 21.154 177.917 21.2757 177.301 21.2757C176.685 21.2757 176.075 21.154 175.506 20.9177C174.937 20.6813 174.42 20.3348 173.985 19.898C173.55 19.4613 173.204 18.9427 172.968 18.3721C172.733 17.8014 172.612 17.1897 172.612 16.572H170.602Z" stroke="black" stroke-width="3.71427" mask="url(#path-11-inside-2_131_84)"/>
<mask id="path-12-inside-3_131_84" fill="white">
<path d="M9.18252 23.035C10.3884 23.035 11.5824 22.7888 12.6965 22.3105C13.8106 21.8322 14.8229 21.1312 15.6755 20.2474C16.5282 19.3636 17.2046 18.3144 17.6661 17.1597C18.1275 16.005 18.3651 14.7674 18.3651 13.5175C18.3651 12.2676 18.1275 11.03 17.6661 9.87531C17.2046 8.72059 16.5282 7.67139 15.6755 6.78761C14.8229 5.90383 13.8106 5.20278 12.6965 4.72448C11.5824 4.24618 10.3884 4 9.18252 4L9.18252 7.06464C10.0001 7.06464 10.8097 7.23154 11.565 7.55583C12.3204 7.88012 13.0067 8.35543 13.5848 8.95464C14.1629 9.55384 14.6215 10.2652 14.9344 11.0481C15.2472 11.831 15.4083 12.6701 15.4083 13.5175C15.4083 14.3649 15.2472 15.204 14.9344 15.9869C14.6215 16.7698 14.1629 17.4812 13.5848 18.0804C13.0067 18.6796 12.3204 19.1549 11.565 19.4792C10.8097 19.8035 10.0001 19.9704 9.18252 19.9704L9.18252 23.035Z"/>
</mask>
<path d="M9.18252 23.035C10.3884 23.035 11.5824 22.7888 12.6965 22.3105C13.8106 21.8322 14.8229 21.1312 15.6755 20.2474C16.5282 19.3636 17.2046 18.3144 17.6661 17.1597C18.1275 16.005 18.3651 14.7674 18.3651 13.5175C18.3651 12.2676 18.1275 11.03 17.6661 9.87531C17.2046 8.72059 16.5282 7.67139 15.6755 6.78761C14.8229 5.90383 13.8106 5.20278 12.6965 4.72448C11.5824 4.24618 10.3884 4 9.18252 4L9.18252 7.06464C10.0001 7.06464 10.8097 7.23154 11.565 7.55583C12.3204 7.88012 13.0067 8.35543 13.5848 8.95464C14.1629 9.55384 14.6215 10.2652 14.9344 11.0481C15.2472 11.831 15.4083 12.6701 15.4083 13.5175C15.4083 14.3649 15.2472 15.204 14.9344 15.9869C14.6215 16.7698 14.1629 17.4812 13.5848 18.0804C13.0067 18.6796 12.3204 19.1549 11.565 19.4792C10.8097 19.8035 10.0001 19.9704 9.18252 19.9704L9.18252 23.035Z" stroke="black" stroke-width="6.14032" mask="url(#path-12-inside-3_131_84)"/>
<mask id="path-13-inside-4_131_84" fill="white">
<path d="M9.18252 38.9998C10.3884 38.9998 11.5824 38.7537 12.6965 38.2754C13.8106 37.7971 14.8229 37.096 15.6755 36.2122C16.5282 35.3285 17.2046 34.2793 17.6661 33.1245C18.1275 31.9698 18.3651 30.7322 18.3651 29.4823C18.3651 28.2325 18.1275 26.9949 17.6661 25.8402C17.2046 24.6854 16.5282 23.6362 15.6755 22.7525C14.8229 21.8687 13.8106 21.1676 12.6965 20.6893C11.5824 20.211 10.3884 19.9648 9.18252 19.9648L9.18252 23.0303C10 23.0303 10.8095 23.1971 11.5647 23.5214C12.32 23.8456 13.0062 24.3209 13.5843 24.92C14.1623 25.5192 14.6208 26.2304 14.9337 27.0132C15.2465 27.796 15.4075 28.635 15.4075 29.4823C15.4075 30.3296 15.2465 31.1686 14.9337 31.9515C14.6208 32.7343 14.1623 33.4455 13.5843 34.0447C13.0062 34.6438 12.32 35.1191 11.5647 35.4433C10.8095 35.7675 10 35.9344 9.18252 35.9344L9.18252 38.9998Z"/>
</mask>
<path d="M9.18252 38.9998C10.3884 38.9998 11.5824 38.7537 12.6965 38.2754C13.8106 37.7971 14.8229 37.096 15.6755 36.2122C16.5282 35.3285 17.2046 34.2793 17.6661 33.1245C18.1275 31.9698 18.3651 30.7322 18.3651 29.4823C18.3651 28.2325 18.1275 26.9949 17.6661 25.8402C17.2046 24.6854 16.5282 23.6362 15.6755 22.7525C14.8229 21.8687 13.8106 21.1676 12.6965 20.6893C11.5824 20.211 10.3884 19.9648 9.18252 19.9648L9.18252 23.0303C10 23.0303 10.8095 23.1971 11.5647 23.5214C12.32 23.8456 13.0062 24.3209 13.5843 24.92C14.1623 25.5192 14.6208 26.2304 14.9337 27.0132C15.2465 27.796 15.4075 28.635 15.4075 29.4823C15.4075 30.3296 15.2465 31.1686 14.9337 31.9515C14.6208 32.7343 14.1623 33.4455 13.5843 34.0447C13.0062 34.6438 12.32 35.1191 11.5647 35.4433C10.8095 35.7675 10 35.9344 9.18252 35.9344L9.18252 38.9998Z" stroke="black" stroke-width="6.14032" mask="url(#path-13-inside-4_131_84)"/>
<rect x="3.05176e-05" y="4" width="3.06084" height="34.9998" rx="1.53042" fill="black"/>
<rect x="3.05176e-05" y="23.0352" width="3.07016" height="11.019" rx="1.53508" transform="rotate(-90 3.05176e-05 23.0352)" fill="black"/>
<rect x="3.05176e-05" y="7.07031" width="3.07016" height="11.019" rx="1.53508" transform="rotate(-90 3.05176e-05 7.07031)" fill="black"/>
<rect x="3.05176e-05" y="38.9995" width="3.07016" height="11.019" rx="1.53508" transform="rotate(-90 3.05176e-05 38.9995)" fill="black"/>
<path fill-rule="evenodd" clip-rule="evenodd" d="M2.44814 5.8418H1.83597V6.45583C1.83597 6.37519 1.8518 6.29535 1.88257 6.22085C1.91333 6.14635 1.95842 6.07866 2.01527 6.02164C2.07211 5.96462 2.1396 5.9194 2.21387 5.88854C2.28814 5.85768 2.36775 5.8418 2.44814 5.8418Z" fill="black"/>
<path fill-rule="evenodd" clip-rule="evenodd" d="M1.83597 19.9651L1.83597 20.5791L2.44814 20.5791C2.36775 20.5791 2.28814 20.5632 2.21387 20.5324C2.1396 20.5015 2.07211 20.4563 2.01527 20.3993C1.95842 20.3422 1.91333 20.2745 1.88257 20.2C1.8518 20.1256 1.83597 20.0457 1.83597 19.9651Z" fill="black"/>
<path fill-rule="evenodd" clip-rule="evenodd" d="M2.44814 22.4209H1.83597V23.0349C1.83597 22.9543 1.8518 22.8744 1.88257 22.8C1.91333 22.7255 1.95842 22.6578 2.01527 22.6007C2.07211 22.5437 2.1396 22.4985 2.21387 22.4676C2.28814 22.4368 2.36775 22.4209 2.44814 22.4209Z" fill="black"/>
<path fill-rule="evenodd" clip-rule="evenodd" d="M1.83597 36.5437L1.83597 37.1577L2.44814 37.1577C2.36775 37.1577 2.28814 37.1418 2.21387 37.111C2.1396 37.0801 2.07211 37.0349 2.01527 36.9779C1.95842 36.9209 1.91333 36.8532 1.88257 36.7787C1.8518 36.7042 1.83597 36.6243 1.83597 36.5437Z" fill="black"/>
<mask id="path-22-inside-5_131_84" fill="white">
<path d="M41.0158 13.2105C41.0158 10.7677 40.0483 8.42499 38.3263 6.69769C36.6042 4.97039 34.2686 4 31.8333 4C29.3979 4 27.0623 4.97039 25.3402 6.69769C23.6182 8.42499 22.6507 10.7677 22.6507 13.2105H25.7103C25.7103 11.5816 26.3554 10.0195 27.5037 8.86775C28.652 7.71599 30.2094 7.06893 31.8333 7.06893C33.4572 7.06893 35.0145 7.71599 36.1628 8.86775C37.3111 10.0195 37.9562 11.5816 37.9562 13.2105H41.0158Z"/>
</mask>
<path d="M41.0158 13.2105C41.0158 10.7677 40.0483 8.42499 38.3263 6.69769C36.6042 4.97039 34.2686 4 31.8333 4C29.3979 4 27.0623 4.97039 25.3402 6.69769C23.6182 8.42499 22.6507 10.7677 22.6507 13.2105H25.7103C25.7103 11.5816 26.3554 10.0195 27.5037 8.86775C28.652 7.71599 30.2094 7.06893 31.8333 7.06893C33.4572 7.06893 35.0145 7.71599 36.1628 8.86775C37.3111 10.0195 37.9562 11.5816 37.9562 13.2105H41.0158Z" stroke="black" stroke-width="3.66722" mask="url(#path-22-inside-5_131_84)"/>
<mask id="path-23-inside-6_131_84" fill="white">
<path d="M41.0159 29.7896C41.0159 32.2324 40.0484 34.5751 38.3264 36.3024C36.6043 38.0297 34.2687 39.0001 31.8334 39.0001C29.398 39.0001 27.0624 38.0297 25.3403 36.3024C23.6183 34.5751 22.6508 32.2324 22.6508 29.7896H25.7106C25.7106 31.4184 26.3556 32.9805 27.5039 34.1322C28.6521 35.284 30.2095 35.931 31.8333 35.931C33.4572 35.931 35.0146 35.284 36.1628 34.1322C37.3111 32.9805 37.9561 31.4184 37.9561 29.7896H41.0159Z"/>
</mask>
<path d="M41.0159 29.7896C41.0159 32.2324 40.0484 34.5751 38.3264 36.3024C36.6043 38.0297 34.2687 39.0001 31.8334 39.0001C29.398 39.0001 27.0624 38.0297 25.3403 36.3024C23.6183 34.5751 22.6508 32.2324 22.6508 29.7896H25.7106C25.7106 31.4184 26.3556 32.9805 27.5039 34.1322C28.6521 35.284 30.2095 35.931 31.8333 35.931C33.4572 35.931 35.0146 35.284 36.1628 34.1322C37.3111 32.9805 37.9561 31.4184 37.9561 29.7896H41.0159Z" stroke="black" stroke-width="3.66722" mask="url(#path-23-inside-6_131_84)"/>
<rect x="22.6508" y="13.2104" width="3.06084" height="16.5789" fill="black"/>
<rect x="37.9553" y="13.2104" width="3.06084" height="16.5789" fill="black"/>
<mask id="path-26-inside-7_131_84" fill="white">
<path d="M62.1359 13.2105C62.9808 13.2105 63.6787 12.5209 63.5394 11.6876C63.2255 9.80969 62.3362 8.06178 60.9762 6.69769C59.2542 4.97039 56.9185 4 54.4832 4C52.0478 4 49.7122 4.97039 47.9902 6.69769C46.6302 8.06178 45.7409 9.80969 45.427 11.6876C45.2877 12.5209 45.9856 13.2105 46.8305 13.2105C47.6754 13.2105 48.3415 12.5153 48.5493 11.6963C48.8185 10.6348 49.3684 9.65535 50.1536 8.86775C51.3019 7.71599 52.8593 7.06893 54.4832 7.06893C56.1071 7.06893 57.6645 7.71599 58.8127 8.86775C59.5979 9.65535 60.1479 10.6348 60.4171 11.6963C60.6248 12.5153 61.291 13.2105 62.1359 13.2105Z"/>
</mask>
<path d="M62.1359 13.2105C62.9808 13.2105 63.6787 12.5209 63.5394 11.6876C63.2255 9.80969 62.3362 8.06178 60.9762 6.69769C59.2542 4.97039 56.9185 4 54.4832 4C52.0478 4 49.7122 4.97039 47.9902 6.69769C46.6302 8.06178 45.7409 9.80969 45.427 11.6876C45.2877 12.5209 45.9856 13.2105 46.8305 13.2105C47.6754 13.2105 48.3415 12.5153 48.5493 11.6963C48.8185 10.6348 49.3684 9.65535 50.1536 8.86775C51.3019 7.71599 52.8593 7.06893 54.4832 7.06893C56.1071 7.06893 57.6645 7.71599 58.8127 8.86775C59.5979 9.65535 60.1479 10.6348 60.4171 11.6963C60.6248 12.5153 61.291 13.2105 62.1359 13.2105Z" stroke="black" stroke-width="3.66722" mask="url(#path-26-inside-7_131_84)"/>
<mask id="path-27-inside-8_131_84" fill="white">
<path d="M63.2049 10.3293C62.5209 8.24629 61.1184 6.47644 59.2497 5.33807C57.3809 4.19969 55.1685 3.7675 53.0105 4.11923C50.8524 4.47096 48.8902 5.58353 47.4769 7.25682C46.0637 8.93011 45.292 11.0543 45.3007 13.2473L48.3603 13.2351C48.3545 11.7727 48.869 10.3563 49.8114 9.24058C50.7538 8.12483 52.0622 7.38297 53.5012 7.14844C54.9402 6.9139 56.4154 7.20209 57.6615 7.96116C58.9076 8.72022 59.8428 9.90036 60.2988 11.2893L63.2049 10.3293Z"/>
</mask>
<path d="M63.2049 10.3293C62.5209 8.24629 61.1184 6.47644 59.2497 5.33807C57.3809 4.19969 55.1685 3.7675 53.0105 4.11923C50.8524 4.47096 48.8902 5.58353 47.4769 7.25682C46.0637 8.93011 45.292 11.0543 45.3007 13.2473L48.3603 13.2351C48.3545 11.7727 48.869 10.3563 49.8114 9.24058C50.7538 8.12483 52.0622 7.38297 53.5012 7.14844C54.9402 6.9139 56.4154 7.20209 57.6615 7.96116C58.9076 8.72022 59.8428 9.90036 60.2988 11.2893L63.2049 10.3293Z" stroke="black" stroke-width="3.66722" mask="url(#path-27-inside-8_131_84)"/>
<mask id="path-28-inside-9_131_84" fill="white">
<path d="M62.1359 29.7896C62.9808 29.7896 63.6787 30.4792 63.5394 31.3125C63.2255 33.1904 62.3362 34.9383 60.9762 36.3024C59.2542 38.0297 56.9185 39.0001 54.4832 39.0001C52.0478 39.0001 49.7122 38.0297 47.9902 36.3024C46.6302 34.9383 45.7409 33.1904 45.427 31.3125C45.2877 30.4792 45.9856 29.7896 46.8305 29.7896C47.6754 29.7896 48.3415 30.4848 48.5493 31.3038C48.8185 32.3652 49.3684 33.3447 50.1536 34.1323C51.3019 35.2841 52.8593 35.9311 54.4832 35.9311C56.1071 35.9311 57.6645 35.2841 58.8127 34.1323C59.5979 33.3447 60.1479 32.3652 60.4171 31.3038C60.6248 30.4848 61.291 29.7896 62.1359 29.7896Z"/>
</mask>
<path d="M62.1359 29.7896C62.9808 29.7896 63.6787 30.4792 63.5394 31.3125C63.2255 33.1904 62.3362 34.9383 60.9762 36.3024C59.2542 38.0297 56.9185 39.0001 54.4832 39.0001C52.0478 39.0001 49.7122 38.0297 47.9902 36.3024C46.6302 34.9383 45.7409 33.1904 45.427 31.3125C45.2877 30.4792 45.9856 29.7896 46.8305 29.7896C47.6754 29.7896 48.3415 30.4848 48.5493 31.3038C48.8185 32.3652 49.3684 33.3447 50.1536 34.1323C51.3019 35.2841 52.8593 35.9311 54.4832 35.9311C56.1071 35.9311 57.6645 35.2841 58.8127 34.1323C59.5979 33.3447 60.1479 32.3652 60.4171 31.3038C60.6248 30.4848 61.291 29.7896 62.1359 29.7896Z" stroke="black" stroke-width="3.66722" mask="url(#path-28-inside-9_131_84)"/>
<mask id="path-29-inside-10_131_84" fill="white">
<path d="M63.3681 32.1156C62.8041 34.2832 61.4718 36.1703 59.6206 37.4236C57.7695 38.677 55.5264 39.2107 53.3112 38.9247C51.0961 38.6388 49.0608 37.5529 47.5863 35.8703C46.1118 34.1877 45.2992 32.0238 45.3007 29.7836L48.3603 29.7856C48.3593 31.2794 48.9011 32.7223 49.8843 33.8442C50.8675 34.9662 52.2247 35.6903 53.7017 35.8809C55.1788 36.0716 56.6745 35.7157 57.9088 34.88C59.1432 34.0442 60.0315 32.7859 60.4076 31.3406L63.3681 32.1156Z"/>
</mask>
<path d="M63.3681 32.1156C62.8041 34.2832 61.4718 36.1703 59.6206 37.4236C57.7695 38.677 55.5264 39.2107 53.3112 38.9247C51.0961 38.6388 49.0608 37.5529 47.5863 35.8703C46.1118 34.1877 45.2992 32.0238 45.3007 29.7836L48.3603 29.7856C48.3593 31.2794 48.9011 32.7223 49.8843 33.8442C50.8675 34.9662 52.2247 35.6903 53.7017 35.8809C55.1788 36.0716 56.6745 35.7157 57.9088 34.88C59.1432 34.0442 60.0315 32.7859 60.4076 31.3406L63.3681 32.1156Z" stroke="black" stroke-width="3.66722" mask="url(#path-29-inside-10_131_84)"/>
<rect x="45.3007" y="13.2104" width="3.06084" height="16.5789" fill="black"/>
<mask id="path-31-inside-11_131_84" fill="white">
<path d="M84.7862 13.2105C85.6311 13.2105 86.329 12.521 86.1897 11.6876C86.0751 11.0024 85.8834 10.3307 85.6171 9.68579C85.1556 8.56832 84.4792 7.55296 83.6266 6.69769C82.7739 5.84242 81.7616 5.16398 80.6475 4.70111C79.5334 4.23824 78.3394 4 77.1335 4C75.9277 4 74.7336 4.23824 73.6195 4.70111C72.5054 5.16398 71.4932 5.84242 70.6405 6.69769C69.7878 7.55296 69.1114 8.56832 68.65 9.68579C68.3836 10.3307 68.1919 11.0024 68.0774 11.6876C67.9381 12.521 68.6359 13.2105 69.4808 13.2105C70.3257 13.2105 70.9919 12.5153 71.1996 11.6963C71.2717 11.412 71.3642 11.1325 71.4767 10.8602C71.7844 10.1151 72.2354 9.43805 72.804 8.86775C73.3725 8.29746 74.0475 7.84507 74.7904 7.53643C75.5332 7.22779 76.3294 7.06893 77.1335 7.06893C77.9376 7.06893 78.7338 7.22779 79.4767 7.53643C80.2195 7.84507 80.8945 8.29746 81.4631 8.86775C82.0316 9.43805 82.4826 10.1151 82.7904 10.8602C82.9028 11.1325 82.9953 11.412 83.0674 11.6963C83.2751 12.5153 83.9414 13.2105 84.7862 13.2105Z"/>
</mask>
<path d="M84.7862 13.2105C85.6311 13.2105 86.329 12.521 86.1897 11.6876C86.0751 11.0024 85.8834 10.3307 85.6171 9.68579C85.1556 8.56832 84.4792 7.55296 83.6266 6.69769C82.7739 5.84242 81.7616 5.16398 80.6475 4.70111C79.5334 4.23824 78.3394 4 77.1335 4C75.9277 4 74.7336 4.23824 73.6195 4.70111C72.5054 5.16398 71.4932 5.84242 70.6405 6.69769C69.7878 7.55296 69.1114 8.56832 68.65 9.68579C68.3836 10.3307 68.1919 11.0024 68.0774 11.6876C67.9381 12.521 68.6359 13.2105 69.4808 13.2105C70.3257 13.2105 70.9919 12.5153 71.1996 11.6963C71.2717 11.412 71.3642 11.1325 71.4767 10.8602C71.7844 10.1151 72.2354 9.43805 72.804 8.86775C73.3725 8.29746 74.0475 7.84507 74.7904 7.53643C75.5332 7.22779 76.3294 7.06893 77.1335 7.06893C77.9376 7.06893 78.7338 7.22779 79.4767 7.53643C80.2195 7.84507 80.8945 8.29746 81.4631 8.86775C82.0316 9.43805 82.4826 10.1151 82.7904 10.8602C82.9028 11.1325 82.9953 11.412 83.0674 11.6963C83.2751 12.5153 83.9414 13.2105 84.7862 13.2105Z" stroke="black" stroke-width="3.64792" mask="url(#path-31-inside-11_131_84)"/>
<rect x="75.6068" y="4.61426" width="3.06084" height="34.3858" rx="1.53042" fill="black"/>
<mask id="path-33-inside-12_131_84" fill="white">
<path d="M122.434 23.0352C123.64 23.0352 124.834 22.7969 125.948 22.3341C127.062 21.8712 128.074 21.1927 128.927 20.3375C129.78 19.4822 130.456 18.4668 130.918 17.3494C131.379 16.2319 131.617 15.0342 131.617 13.8247L128.557 13.8247C128.557 14.6312 128.399 15.4298 128.091 16.1749C127.783 16.9201 127.332 17.5971 126.764 18.1674C126.195 18.7377 125.52 19.1901 124.777 19.4987C124.034 19.8074 123.238 19.9662 122.434 19.9662L122.434 23.0352Z"/>
</mask>
<path d="M122.434 23.0352C123.64 23.0352 124.834 22.7969 125.948 22.3341C127.062 21.8712 128.074 21.1927 128.927 20.3375C129.78 19.4822 130.456 18.4668 130.918 17.3494C131.379 16.2319 131.617 15.0342 131.617 13.8247L128.557 13.8247C128.557 14.6312 128.399 15.4298 128.091 16.1749C127.783 16.9201 127.332 17.5971 126.764 18.1674C126.195 18.7377 125.52 19.1901 124.777 19.4987C124.034 19.8074 123.238 19.9662 122.434 19.9662L122.434 23.0352Z" stroke="black" stroke-width="3.66722" mask="url(#path-33-inside-12_131_84)"/>
<mask id="path-34-inside-13_131_84" fill="white">
<path d="M131.617 29.1753C131.617 27.9658 131.379 26.7681 130.918 25.6506C130.456 24.5332 129.78 23.5178 128.927 22.6625C128.074 21.8073 127.062 21.1288 125.948 20.6659C124.834 20.2031 123.64 19.9648 122.434 19.9648L122.434 23.0338C123.238 23.0338 124.034 23.1926 124.777 23.5013C125.52 23.8099 126.195 24.2623 126.764 24.8326C127.332 25.4029 127.783 26.0799 128.091 26.8251C128.399 27.5702 128.557 28.3688 128.557 29.1753L131.617 29.1753Z"/>
</mask>
<path d="M131.617 29.1753C131.617 27.9658 131.379 26.7681 130.918 25.6506C130.456 24.5332 129.78 23.5178 128.927 22.6625C128.074 21.8073 127.062 21.1288 125.948 20.6659C124.834 20.2031 123.64 19.9648 122.434 19.9648L122.434 23.0338C123.238 23.0338 124.034 23.1926 124.777 23.5013C125.52 23.8099 126.195 24.2623 126.764 24.8326C127.332 25.4029 127.783 26.0799 128.091 26.8251C128.399 27.5702 128.557 28.3688 128.557 29.1753L131.617 29.1753Z" stroke="black" stroke-width="3.66722" mask="url(#path-34-inside-13_131_84)"/>
<rect x="113.252" y="4" width="3.06084" height="34.9998" rx="1.53042" fill="black"/>
<path d="M128.556 5.53042C128.556 4.68519 129.241 4 130.086 4C130.931 4 131.616 4.68519 131.616 5.53042V13.8245H128.556V5.53042Z" fill="black"/>
<path d="M128.556 29.1753H131.616V37.4694C131.616 38.3146 130.931 38.9998 130.086 38.9998C129.241 38.9998 128.556 38.3146 128.556 37.4694V29.1753Z" fill="black"/>
<rect x="115.088" y="23.0352" width="3.07016" height="7.34602" transform="rotate(-90 115.088 23.0352)" fill="black"/>
<path fill-rule="evenodd" clip-rule="evenodd" d="M115.088 19.9651L115.088 20.5791L115.7 20.5791C115.62 20.5791 115.54 20.5632 115.466 20.5324C115.391 20.5015 115.324 20.4563 115.267 20.3993C115.21 20.3422 115.165 20.2745 115.134 20.2C115.104 20.1256 115.088 20.0457 115.088 19.9651Z" fill="black"/>
<path fill-rule="evenodd" clip-rule="evenodd" d="M115.7 22.4209H115.088V23.0349C115.088 22.9543 115.104 22.8744 115.134 22.8C115.165 22.7255 115.21 22.6578 115.267 22.6007C115.324 22.5437 115.391 22.4985 115.466 22.4676C115.54 22.4368 115.62 22.4209 115.7 22.4209Z" fill="black"/>
<mask id="path-41-inside-14_131_84" fill="white">
<path d="M108.966 13.2105C108.966 10.7677 107.999 8.42499 106.277 6.69769C104.555 4.97039 102.219 4 99.7837 4C97.3483 4 95.0127 4.97039 93.2907 6.69769C91.5686 8.42499 90.6012 10.7677 90.6012 13.2105H93.6608C93.6608 11.5816 94.3059 10.0195 95.4541 8.86775C96.6024 7.71599 98.1598 7.06893 99.7837 7.06893C101.408 7.06893 102.965 7.71599 104.113 8.86775C105.262 10.0195 105.907 11.5816 105.907 13.2105H108.966Z"/>
</mask>
<path d="M108.966 13.2105C108.966 10.7677 107.999 8.42499 106.277 6.69769C104.555 4.97039 102.219 4 99.7837 4C97.3483 4 95.0127 4.97039 93.2907 6.69769C91.5686 8.42499 90.6012 10.7677 90.6012 13.2105H93.6608C93.6608 11.5816 94.3059 10.0195 95.4541 8.86775C96.6024 7.71599 98.1598 7.06893 99.7837 7.06893C101.408 7.06893 102.965 7.71599 104.113 8.86775C105.262 10.0195 105.907 11.5816 105.907 13.2105H108.966Z" stroke="black" stroke-width="3.66722" mask="url(#path-41-inside-14_131_84)"/>
<mask id="path-42-inside-15_131_84" fill="white">
<path d="M108.966 29.7896C108.966 32.2324 107.999 34.5751 106.277 36.3024C104.555 38.0297 102.219 39.0001 99.7837 39.0001C97.3483 39.0001 95.0127 38.0297 93.2907 36.3024C91.5686 34.5751 90.6012 32.2324 90.6012 29.7896H93.6609C93.6609 31.4184 94.306 32.9805 95.4542 34.1322C96.6025 35.284 98.1598 35.931 99.7837 35.931C101.408 35.931 102.965 35.284 104.113 34.1322C105.261 32.9805 105.906 31.4184 105.906 29.7896H108.966Z"/>
</mask>
<path d="M108.966 29.7896C108.966 32.2324 107.999 34.5751 106.277 36.3024C104.555 38.0297 102.219 39.0001 99.7837 39.0001C97.3483 39.0001 95.0127 38.0297 93.2907 36.3024C91.5686 34.5751 90.6012 32.2324 90.6012 29.7896H93.6609C93.6609 31.4184 94.306 32.9805 95.4542 34.1322C96.6025 35.284 98.1598 35.931 99.7837 35.931C101.408 35.931 102.965 35.284 104.113 34.1322C105.261 32.9805 105.906 31.4184 105.906 29.7896H108.966Z" stroke="black" stroke-width="3.66722" mask="url(#path-42-inside-15_131_84)"/>
<rect x="90.6012" y="13.2104" width="3.06084" height="16.5789" fill="black"/>
<rect x="105.906" y="13.2104" width="3.06084" height="16.5789" fill="black"/>
</svg>
